{
  "accessors": [
    {
      "bufferView": 1,
      "componentType": 5126,
      "count": 65532,
      "max": [
        0.262277752161026,
        0.8998209238052368,
        0.371429443359375
      ],
      "min": [
        -0.36987900733947754,
        -0.6513468623161316,
        -0.46481284499168396
      ],
      "type": "VEC3"
    },
    {
      "bufferView": 1,
      "byteOffset": 786384,
      "componentType": 5126,
      "count": 65532,
      "max": [
        0.9768013954162598,
        1.0,
        0.9996442794799805
      ],
      "min": [
        -0.9999977946281433,
        -0.9999955892562866,
        -0.9999963045120239
      ],
      "type": "VEC3"
    },
    {
      "bufferView": 0,
      "componentType": 5125,
      "count": 362769,
      "type": "SCALAR"
    },
    {
      "bufferView": 1,
      "byteOffset": 1572768,
      "componentType": 5126,
      "count": 65532,
      "max": [
        0.2884153723716736,
        0.9265195727348328,
        0.37655705213546753
      ],
      "min": [
        -0.4090539813041687,
        -0.5640327334403992,
        -0.45437148213386536
      ],
      "type": "VEC3"
    },
    {
      "bufferView": 1,
      "byteOffset": 2359152,
      "componentType": 5126,
      "count": 65532,
      "max": [
        0.9999679327011108,
        0.999965250492096,
        0.9999796152114868
      ],
      "min": [
        -0.9999933838844299,
        -0.9999967813491821,
        -0.9999821186065674
      ],
      "type": "VEC3"
    },
    {
      "bufferView": 0,
      "byteOffset": 1451076,
      "componentType": 5125,
      "count": 355380,
      "type": "SCALAR"
    },
    {
      "bufferView": 1,
      "byteOffset": 3145536,
      "componentType": 5126,
      "count": 65532,
      "max": [
        0.3445572555065155,
        0.9419941902160645,
        0.382815420627594
      ],
      "min": [
        -0.3583435118198395,
        -0.12041369825601578,
        -0.4518882632255554
      ],
      "type": "VEC3"
    },
    {
      "bufferView": 1,
      "byteOffset": 3931920,
      "componentType": 5126,
      "count": 65532,
      "max": [
        0.9999961853027344,
        0.9999379515647888,
        1.0
      ],
      "min": [
        -0.9999815225601196,
        -0.9987345337867737,
        -0.9981103539466858
      ],
      "type": "VEC3"
    },
    {
      "bufferView": 0,
      "byteOffset": 2872596,
      "componentType": 5125,
      "count": 355329,
      "type": "SCALAR"
    },
    {
      "bufferView": 1,
      "byteOffset": 4718304,
      "componentType": 5126,
      "count": 65532,
      "max": [
        0.4122484028339386,
        0.9517768621444702,
        0.38578495383262634
      ],
      "min": [
        -0.3558945655822754,
        -0.9520565867424011,
        -0.42301830649375916
      ],
      "type": "VEC3"
    },
    {
      "bufferView": 1,
      "byteOffset": 5504688,
      "componentType": 5126,
      "count": 65532,
      "max": [
        0.9999776482582092,
        0.9999977350234985,
        0.9999587535858154
      ],
      "min": [
        -0.9999663829803467,
        -1.0,
        -0.9999638795852661
      ],
      "type": "VEC3"
    },
    {
      "bufferView": 0,
      "byteOffset": 4293912,
      "componentType": 5125,
      "count": 358188,
      "type": "SCALAR"
    },
    {
      "bufferView": 1,
      "byteOffset": 6291072,
      "componentType": 5126,
      "count": 65532,
      "max": [
        0.39181268215179443,
        0.9424749612808228,
        0.4546923041343689
      ],
      "min": [
        -0.40697574615478516,
        -0.9520443081855774,
        -0.4541434943675995
      ],
      "type": "VEC3"
    },
    {
      "bufferView": 1,
      "byteOffset": 7077456,
      "componentType": 5126,
      "count": 65532,
      "max": [
        0.9999542832374573,
        0.9999926090240479,
        0.9999706745147705
      ],
      "min": [
        -0.9999682903289795,
        -0.9999997615814209,
        -0.9995556473731995
      ],
      "type": "VEC3"
    },
    {
      "bufferView": 0,
      "byteOffset": 5726664,
      "componentType": 5125,
      "count": 355518,
      "type": "SCALAR"
    },
    {
      "bufferView": 1,
      "byteOffset": 7863840,
      "componentType": 5126,
      "count": 65532,
      "max": [
        0.4041000306606293,
        0.9433242678642273,
        0.4546923041343689
      ],
      "min": [
        -0.3941783607006073,
        -0.9520408511161804,
        -0.44285765290260315
      ],
      "type": "VEC3"
    },
    {
      "bufferView": 1,
      "byteOffset": 8650224,
      "componentType": 5126,
      "count": 65532,
      "max": [
        1.0,
        1.0,
        1.0
      ],
      "min": [
        -0.9998220801353455,
        -1.0,
        -0.9999076724052429
      ],
      "type": "VEC3"
    },
    {
      "bufferView": 0,
      "byteOffset": 7148736,
      "componentType": 5125,
      "count": 314190,
      "type": "SCALAR"
    },
    {
      "bufferView": 1,
      "byteOffset": 9436608,
      "componentType": 5126,
      "count": 46689,
      "max": [
        0.411288321018219,
        0.9495164752006531,
        0.1738322377204895
      ],
      "min": [
        -0.40877565741539,
        -0.9520184397697449,
        -0.4646190106868744
      ],
      "type": "VEC3"
    },
    {
      "bufferView": 1,
      "byteOffset": 9996876,
      "componentType": 5126,
      "count": 46689,
      "max": [
        1.0,
        1.0,
        1.0
      ],
      "min": [
        -1.0,
        -1.0,
        -1.0
      ],
      "type": "VEC3"
    },
    {
      "bufferView": 0,
      "byteOffset": 8405496,
      "componentType": 5125,
      "count": 134322,
      "type": "SCALAR"
    }
  ],
  "asset": {
    "extras": {
      "author": "carlitovonlongdonger (https://sketchfab.com/carlitovonlongdonger)",
      "license": "CC-BY-4.0 (http://creativecommons.org/licenses/by/4.0/)",
      "source": "https://sketchfab.com/3d-models/jd-vance-south-park-36378040583341ecb6e6715b5b73b4d0",
      "title": "JD Vance (South Park)"
    },
    "generator": "Sketchfab-16.75.0",
    "version": "2.0"
  },
  "bufferViews": [
    {
      "buffer": 0,
      "byteLength": 8942784,
      "name": "floatBufferViews",
      "target": 34963
    },
    {
      "buffer": 0,
      "byteLength": 10557144,
      "byteOffset": 8942784,
      "byteStride": 12,
      "name": "floatBufferViews",
      "target": 34962
    }
  ],
  "buffers": [
    {
      "byteLength": 19499928,
      "uri": "scene.bin"
    }
  ],
  "materials": [
    {
      "doubleSided": true,
      "name": "Scene_-_Root",
      "pbrMetallicRoughness": {
        "metallicFactor": 0.0,
        "roughnessFactor": 0.6
      }
    }
  ],
  "meshes": [
    {
      "name": "Object_0",
      "primitives": [
        {
          "attributes": {
            "NORMAL": 1,
            "POSITION": 0
          },
          "indices": 2,
          "material": 0,
          "mode": 4
        }
      ]
    },
    {
      "name": "Object_1",
      "primitives": [
        {
          "attributes": {
            "NORMAL": 4,
            "POSITION": 3
          },
          "indices": 5,
          "material": 0,
          "mode": 4
        }
      ]
    },
    {
      "name": "Object_2",
      "primitives": [
        {
          "attributes": {
            "NORMAL": 7,
            "POSITION": 6
          },
          "indices": 8,
          "material": 0,
          "mode": 4
        }
      ]
    },
    {
      "name": "Object_3",
      "primitives": [
        {
          "attributes": {
            "NORMAL": 10,
            "POSITION": 9
          },
          "indices": 11,
          "material": 0,
          "mode": 4
        }
      ]
    },
    {
      "name": "Object_4",
      "primitives": [
        {
          "attributes": {
            "NORMAL": 13,
            "POSITION": 12
          },
          "indices": 14,
          "material": 0,
          "mode": 4
        }
      ]
    },
    {
      "name": "Object_5",
      "primitives": [
        {
          "attributes": {
            "NORMAL": 16,
            "POSITION": 15
          },
          "indices": 17,
          "material": 0,
          "mode": 4
        }
      ]
    },
    {
      "name": "Object_6",
      "primitives": [
        {
          "attributes": {
            "NORMAL": 19,
            "POSITION": 18
          },
          "indices": 20,
          "material": 0,
          "mode": 4
        }
      ]
    }
  ],
  "nodes": [
    {
      "children": [
        1
      ],
      "matrix": [
        1.0,
        0.0,
        0.0,
        0.0,
        0.0,
        2.220446049250313e-16,
        -1.0,
        0.0,
        0.0,
        1.0,
        2.220446049250313e-16,
        0.0,
        0.0,
        0.0,
        0.0,
        1.0
      ],
      "name": "Sketchfab_model"
    },
    {
      "children": [
        2
      ],
      "name": "root"
    },
    {
      "children": [
        3
      ],
      "matrix": [
        1.0,
        0.0,
        0.0,
        0.0,
        0.0,
        2.220446049250313e-16,
        1.0,
        0.0,
        0.0,
        -1.0,
        2.220446049250313e-16,
        0.0,
        0.0,
        0.0,
        0.0,
        1.0
      ],
      "name": "GLTF_SceneRootNode"
    },
    {
      "children": [
        4,
        5,
        6,
        7,
        8,
        9,
        10
      ],
      "name": "Mesh1.0_0"
    },
    {
      "mesh": 0,
      "name": "Object_4"
    },
    {
      "mesh": 1,
      "name": "Object_5"
    },
    {
      "mesh": 2,
      "name": "Object_6"
    },
    {
      "mesh": 3,
      "name": "Object_7"
    },
    {
      "mesh": 4,
      "name": "Object_8"
    },
    {
      "mesh": 5,
      "name": "Object_9"
    },
    {
      "mesh": 6,
      "name": "Object_10"
    }
  ],
  "scene": 0,
  "scenes": [
    {
      "name": "Sketchfab_Scene",
      "nodes": [
        0
      ]
    }
  ]
}
